<svg xmlns="http://www.w3.org/2000/svg" width="23" height="24" viewBox="0 0 23 24" fill="none">
    <path d="M19.125 3H16.875V1.875C16.875 1.57663 16.7565 1.29048 16.5455 1.0795C16.3345 0.868526 16.0484 0.75 15.75 0.75C15.4516 0.75 15.1655 0.868526 14.9545 1.0795C14.7435 1.29048 14.625 1.57663 14.625 1.875V3H7.875V1.875C7.875 1.57663 7.75647 1.29048 7.54549 1.0795C7.33452 0.868526 7.04837 0.75 6.75 0.75C6.45163 0.75 6.16548 0.868526 5.95451 1.0795C5.74353 1.29048 5.625 1.57663 5.625 1.875V3H3.375C2.47989 3 1.62145 3.35558 0.988515 3.98851C0.355579 4.62145 0 5.47989 0 6.375V19.875C0 20.7701 0.355579 21.6286 0.988515 22.2615C1.62145 22.8944 2.47989 23.25 3.375 23.25H19.125C20.0201 23.25 20.8786 22.8944 21.5115 22.2615C22.1444 21.6286 22.5 20.7701 22.5 19.875V6.375C22.5 5.47989 22.1444 4.62145 21.5115 3.98851C20.8786 3.35558 20.0201 3 19.125 3V3ZM20.25 19.875C20.25 20.1734 20.1315 20.4595 19.9205 20.6705C19.7095 20.8815 19.4234 21 19.125 21H3.375C3.07663 21 2.79048 20.8815 2.57951 20.6705C2.36853 20.4595 2.25 20.1734 2.25 19.875V12H20.25V19.875ZM20.25 9.75H2.25V6.375C2.25 6.07663 2.36853 5.79048 2.57951 5.57951C2.79048 5.36853 3.07663 5.25 3.375 5.25H5.625V6.375C5.625 6.67337 5.74353 6.95952 5.95451 7.17049C6.16548 7.38147 6.45163 7.5 6.75 7.5C7.04837 7.5 7.33452 7.38147 7.54549 7.17049C7.75647 6.95952 7.875 6.67337 7.875 6.375V5.25H14.625V6.375C14.625 6.67337 14.7435 6.95952 14.9545 7.17049C15.1655 7.38147 15.4516 7.5 15.75 7.5C16.0484 7.5 16.3345 7.38147 16.5455 7.17049C16.7565 6.95952 16.875 6.67337 16.875 6.375V5.25H19.125C19.4234 5.25 19.7095 5.36853 19.9205 5.57951C20.1315 5.79048 20.25 6.07663 20.25 6.375V9.75Z" fill="#616161"/>
</svg>